<mxfile host="app.diagrams.net" modified="2023-11-06T23:00:38.850Z" agent="Mozilla/5.0 (Windows NT 10.0; Win64; x64) AppleWebKit/537.36 (KHTML, like Gecko) Chrome/118.0.0.0 Safari/537.36" etag="QAeXNTl4nWdBVj332okK" version="22.0.8" type="device">
  <diagram name="Trang-1" id="WdtzWeTc8iiO_M6JUH8a">
    <mxGraphModel dx="1050" dy="581" grid="1" gridSize="10" guides="1" tooltips="1" connect="1" arrows="1" fold="1" page="1" pageScale="1" pageWidth="827" pageHeight="1169" math="0" shadow="0">
      <root>
        <mxCell id="0" />
        <mxCell id="1" parent="0" />
        <mxCell id="iXviJBrSd9YatDAdVm6y-1" value="Start" style="ellipse;whiteSpace=wrap;html=1;" vertex="1" parent="1">
          <mxGeometry x="294" y="10" width="120" height="80" as="geometry" />
        </mxCell>
        <mxCell id="iXviJBrSd9YatDAdVm6y-3" value="" style="endArrow=classic;html=1;rounded=0;" edge="1" parent="1">
          <mxGeometry width="50" height="50" relative="1" as="geometry">
            <mxPoint x="353.5" y="90" as="sourcePoint" />
            <mxPoint x="354" y="150" as="targetPoint" />
          </mxGeometry>
        </mxCell>
        <mxCell id="iXviJBrSd9YatDAdVm6y-4" value="Declare variables 567" style="shape=parallelogram;perimeter=parallelogramPerimeter;whiteSpace=wrap;html=1;fixedSize=1;" vertex="1" parent="1">
          <mxGeometry x="290" y="150" width="140" height="60" as="geometry" />
        </mxCell>
        <mxCell id="iXviJBrSd9YatDAdVm6y-5" value="" style="endArrow=classic;html=1;rounded=0;exitX=0.5;exitY=1;exitDx=0;exitDy=0;" edge="1" parent="1">
          <mxGeometry width="50" height="50" relative="1" as="geometry">
            <mxPoint x="353.5" y="210" as="sourcePoint" />
            <mxPoint x="353.5" y="260" as="targetPoint" />
          </mxGeometry>
        </mxCell>
        <mxCell id="iXviJBrSd9YatDAdVm6y-7" value="5*100+6*10+7" style="rounded=0;whiteSpace=wrap;html=1;" vertex="1" parent="1">
          <mxGeometry x="290" y="260" width="120" height="60" as="geometry" />
        </mxCell>
        <mxCell id="iXviJBrSd9YatDAdVm6y-9" value="" style="endArrow=classic;html=1;rounded=0;" edge="1" parent="1">
          <mxGeometry width="50" height="50" relative="1" as="geometry">
            <mxPoint x="353.5" y="320" as="sourcePoint" />
            <mxPoint x="353.5" y="380" as="targetPoint" />
          </mxGeometry>
        </mxCell>
        <mxCell id="iXviJBrSd9YatDAdVm6y-11" value="End" style="ellipse;whiteSpace=wrap;html=1;" vertex="1" parent="1">
          <mxGeometry x="300" y="650" width="120" height="80" as="geometry" />
        </mxCell>
        <mxCell id="iXviJBrSd9YatDAdVm6y-14" value="&#xa;&lt;span style=&quot;color: rgb(0, 0, 0); font-family: Helvetica; font-size: 12px; font-style: normal; font-variant-ligatures: normal; font-variant-caps: normal; font-weight: 400; letter-spacing: normal; orphans: 2; text-align: center; text-indent: 0px; text-transform: none; widows: 2; word-spacing: 0px; -webkit-text-stroke-width: 0px; background-color: rgb(251, 251, 251); text-decoration-thickness: initial; text-decoration-style: initial; text-decoration-color: initial; float: none; display: inline !important;&quot;&gt;7*100+6*10+5&lt;/span&gt;&#xa;&#xa;" style="rhombus;whiteSpace=wrap;html=1;" vertex="1" parent="1">
          <mxGeometry x="298" y="380" width="116" height="120" as="geometry" />
        </mxCell>
        <mxCell id="iXviJBrSd9YatDAdVm6y-15" value="" style="endArrow=classic;html=1;rounded=0;" edge="1" parent="1">
          <mxGeometry width="50" height="50" relative="1" as="geometry">
            <mxPoint x="355.5" y="500" as="sourcePoint" />
            <mxPoint x="355.5" y="550" as="targetPoint" />
          </mxGeometry>
        </mxCell>
        <mxCell id="iXviJBrSd9YatDAdVm6y-16" value="765" style="rounded=0;whiteSpace=wrap;html=1;" vertex="1" parent="1">
          <mxGeometry x="300" y="550" width="120" height="60" as="geometry" />
        </mxCell>
        <mxCell id="iXviJBrSd9YatDAdVm6y-17" value="" style="endArrow=classic;html=1;rounded=0;" edge="1" parent="1">
          <mxGeometry width="50" height="50" relative="1" as="geometry">
            <mxPoint x="353.5" y="610" as="sourcePoint" />
            <mxPoint x="354" y="650" as="targetPoint" />
          </mxGeometry>
        </mxCell>
      </root>
    </mxGraphModel>
  </diagram>
</mxfile>
